<?xml version="1.0" encoding="UTF-8"?>
<svg width="348px" height="327px" viewBox="0 0 348 327" version="1.1" xmlns="http://www.w3.org/2000/svg" xmlns:xlink="http://www.w3.org/1999/xlink">
    <title>Group 31</title>
    <g id="Page-1" stroke="none" stroke-width="1" fill="none" fill-rule="evenodd">
        <g id="Group-31" transform="translate(5.615572, 7.088259)">
            <path d="M162.274672,0.453907611 C184.841671,-0.752344134 199.846365,0.445599221 207.288756,4.04773767 C226.4483,13.321012 234.165512,35.2587806 244.565918,39.2652711 C265.860603,47.4685043 295.377694,33.179567 305.830644,49.4372461 C309.324695,54.871613 310.388233,62.6935152 311.326234,70.4030077 L311.486235,71.7230674 C311.965128,75.6771441 312.445655,79.5637062 313.241347,83.0427028 C315.672628,93.6729703 332.78786,90.6869195 328.548497,119.980287 C325.229647,142.913054 293.146285,211.791046 294.179791,236.682506 C294.713156,249.528318 306.653225,274.634149 330,312 L330,312 L162.274672,312 C180.018773,272.597865 185.420408,248.987481 178.479578,241.168849 C168.068332,229.440902 145.131953,237.849947 126.384428,220.782519 C119.084378,214.136677 119.327029,204.902357 126.384428,193.74231 C131.08936,186.302278 144.636228,173.893668 167.025032,156.516479 C171.621589,149.281228 174.388,143.094359 175.324267,137.955871 C176.260534,132.817383 176.260534,123.821428 175.324267,110.968007 C144.260685,76.4026921 127.947406,52.5017803 126.384428,39.2652711 C125.550611,32.2038673 131.647751,28.9051451 138.513162,22.0141531 C142.515636,17.9967648 150.43614,10.8100163 162.274672,0.453907611 Z M258.888026,75.3284556 C257.061262,81.6991377 261.175207,88.4678876 268.076779,90.4468816 C274.978352,92.4258756 282.054066,88.8657089 283.88083,82.4950268 C285.707594,76.1243447 281.593648,69.3555949 274.692076,67.3766009 C267.790504,65.3976069 260.714789,68.9577735 258.888026,75.3284556 Z" id="Combined-Shape" stroke="#1F488B" stroke-width="13" fill="#3B82F6"></path>
            <path d="M294.179791,151.149656 C291.443689,141.796215 288.586301,135.954993 285.607627,133.62599 C277.364643,127.180862 264.587597,127.962219 261.367318,124.609114 C253.134457,116.036673 252.822677,107.197123 248.086811,103.488088 C234.44077,92.8007812 219.639543,93.5122919 212.820765,87.4117412 C195.114181,71.570205 190.084757,52.9092821 177.476181,45.06919 C150.362397,28.2096675 134.311885,29.956762 129.324643,50.3104734 C134.365629,59.4598571 140.078653,68.184087 146.463716,76.4831632 C152.848778,84.7822395 162.468962,96.2771872 175.324267,110.968007 C175.776376,122.749309 175.443042,131.745264 174.324267,137.955871 C173.205492,144.166477 170.772413,150.353347 167.025032,156.516479 C133.470425,181.402876 121.616153,195.516546 131.462213,198.857489 C158.05042,211.731753 188.154579,197.218513 233.014758,174.841586 C240.135639,171.289584 251.106244,173.364626 265.140372,168.122081 C270.829026,165.997046 280.508832,160.339571 294.179791,151.149656 Z" id="Path-50" fill="#1F488B"></path>
            <path d="M207.108849,147.199742 C184.563887,124.407274 166.092828,106.237898 151.695671,92.6916167 C137.298514,79.1453351 120.133512,59.4520744 100.200667,33.6118346 C103.069101,56.0919153 110.002211,74.127313 121,87.7180278 C131.997789,101.308743 154.471012,119.61275 188.419669,142.630052 L14.5050827,7.43984738 C48.9481567,59.8806195 81.4351203,96.9507187 111.965974,118.650145 C142.496827,140.349571 175.55674,149.866104 211.145713,147.199742 L0.592877823,47.2394078 C20.1989882,70.7256749 44.4968094,90.106565 73.4863415,105.382078 C102.475874,120.657591 145.138084,136.560087 201.472973,153.089565 C194.437394,136.340208 177.84496,124.860401 151.695671,118.650145 C125.546382,112.439889 75.1787843,108.0172 0.592877823,105.382078 C11.3559503,123.070335 29.4762165,135.486326 54.9536764,142.630052 C80.4311363,149.773777 131.149527,153.260281 207.108849,153.089565 C150.158433,142.767184 112.339746,139.280679 93.6527871,142.630052 C74.9658286,145.979424 52.5513167,160.797953 26.4092514,187.085641 C56.2203645,174.844408 82.7070458,167.208325 105.869295,164.177391 C128.363831,161.233831 162.110349,157.663053 207.108849,153.465055 C207.99932,153.381981 209.344942,153.256818 211.145713,153.089565 L207.108849,147.199742 Z" id="Path-51" stroke="#EC4999" stroke-width="12" stroke-linecap="round" stroke-linejoin="round"></path>
        </g>
    </g>
</svg>