<svg xmlns="http://www.w3.org/2000/svg" width="185" height="175" viewBox="0 0 185 175"><defs><clipPath id="clip-0"><path d="M635.61,263.12L635.61,263.12A29.24,29.24,0,0,1,635.61,208.56L635.61,208.56A29.24,29.24,0,0,1,682.56,183.88L682.56,183.88A29.24,29.24,0,0,1,729.50,208.56L729.50,208.56A29.24,29.24,0,0,1,729.50,263.12L729.50,263.12A29.24,29.24,0,0,1,682.56,287.81L682.56,287.81A29.24,29.24,0,0,1,635.61,263.12Z"/></clipPath></defs><g transform="translate(-590.5127802707395,-148.80110764568255)"><g clip-path="url(#clip-0)"><line x1="283.85740358068614" y1="159.10520885774238" x2="437.3327645049285" y2="312.58056978198476" stroke="rgba(34,197,94,0.75)" stroke-width="1.6"/><line x1="295.85740358068614" y1="159.10520885774238" x2="449.3327645049285" y2="312.58056978198476" stroke="rgba(34,197,94,0.75)" stroke-width="1.6"/><line x1="307.85740358068614" y1="159.10520885774238" x2="461.3327645049285" y2="312.58056978198476" stroke="rgba(34,197,94,0.75)" stroke-width="1.6"/><line x1="319.85740358068614" y1="159.10520885774238" x2="473.3327645049285" y2="312.58056978198476" stroke="rgba(34,197,94,0.75)" stroke-width="1.6"/><line x1="331.85740358068614" y1="159.10520885774238" x2="485.3327645049285" y2="312.58056978198476" stroke="rgba(34,197,94,0.75)" stroke-width="1.6"/><line x1="343.85740358068614" y1="159.10520885774238" x2="497.3327645049285" y2="312.58056978198476" stroke="rgba(34,197,94,0.75)" stroke-width="1.6"/><line x1="355.85740358068614" y1="159.10520885774238" x2="509.3327645049285" y2="312.58056978198476" stroke="rgba(34,197,94,0.75)" stroke-width="1.6"/><line x1="367.85740358068614" y1="159.10520885774238" x2="521.3327645049285" y2="312.58056978198476" stroke="rgba(34,197,94,0.75)" stroke-width="1.6"/><line x1="379.85740358068614" y1="159.10520885774238" x2="533.3327645049285" y2="312.58056978198476" stroke="rgba(34,197,94,0.75)" stroke-width="1.6"/><line x1="391.85740358068614" y1="159.10520885774238" x2="545.3327645049285" y2="312.58056978198476" stroke="rgba(34,197,94,0.75)" stroke-width="1.6"/><line x1="403.85740358068614" y1="159.10520885774238" x2="557.3327645049285" y2="312.58056978198476" stroke="rgba(34,197,94,0.75)" stroke-width="1.6"/><line x1="415.85740358068614" y1="159.10520885774238" x2="569.3327645049285" y2="312.58056978198476" stroke="rgba(34,197,94,0.75)" stroke-width="1.6"/><line x1="427.85740358068614" y1="159.10520885774238" x2="581.3327645049285" y2="312.58056978198476" stroke="rgba(34,197,94,0.75)" stroke-width="1.6"/><line x1="439.85740358068614" y1="159.10520885774238" x2="593.3327645049285" y2="312.58056978198476" stroke="rgba(34,197,94,0.75)" stroke-width="1.6"/><line x1="451.85740358068614" y1="159.10520885774238" x2="605.3327645049285" y2="312.58056978198476" stroke="rgba(34,197,94,0.75)" stroke-width="1.6"/><line x1="463.85740358068614" y1="159.10520885774238" x2="617.3327645049285" y2="312.58056978198476" stroke="rgba(34,197,94,0.75)" stroke-width="1.6"/><line x1="475.85740358068614" y1="159.10520885774238" x2="629.3327645049285" y2="312.58056978198476" stroke="rgba(34,197,94,0.75)" stroke-width="1.6"/><line x1="487.85740358068614" y1="159.10520885774238" x2="641.3327645049285" y2="312.58056978198476" stroke="rgba(34,197,94,0.75)" stroke-width="1.6"/><line x1="499.85740358068614" y1="159.10520885774238" x2="653.3327645049285" y2="312.58056978198476" stroke="rgba(34,197,94,0.75)" stroke-width="1.6"/><line x1="511.85740358068614" y1="159.10520885774238" x2="665.3327645049285" y2="312.58056978198476" stroke="rgba(34,197,94,0.75)" stroke-width="1.6"/><line x1="523.8574035806862" y1="159.10520885774238" x2="677.3327645049285" y2="312.58056978198476" stroke="rgba(34,197,94,0.75)" stroke-width="1.6"/><line x1="535.8574035806862" y1="159.10520885774238" x2="689.3327645049285" y2="312.58056978198476" stroke="rgba(34,197,94,0.75)" stroke-width="1.6"/><line x1="547.8574035806862" y1="159.10520885774238" x2="701.3327645049285" y2="312.58056978198476" stroke="rgba(34,197,94,0.75)" stroke-width="1.6"/><line x1="559.8574035806862" y1="159.10520885774238" x2="713.3327645049285" y2="312.58056978198476" stroke="rgba(34,197,94,0.75)" stroke-width="1.6"/><line x1="571.8574035806862" y1="159.10520885774238" x2="725.3327645049285" y2="312.58056978198476" stroke="rgba(34,197,94,0.75)" stroke-width="1.6"/><line x1="583.8574035806862" y1="159.10520885774238" x2="737.3327645049285" y2="312.58056978198476" stroke="rgba(34,197,94,0.75)" stroke-width="1.6"/><line x1="595.8574035806862" y1="159.10520885774238" x2="749.3327645049285" y2="312.58056978198476" stroke="rgba(34,197,94,0.75)" stroke-width="1.6"/><line x1="607.8574035806862" y1="159.10520885774238" x2="761.3327645049285" y2="312.58056978198476" stroke="rgba(34,197,94,0.75)" stroke-width="1.6"/><line x1="619.8574035806862" y1="159.10520885774238" x2="773.3327645049285" y2="312.58056978198476" stroke="rgba(34,197,94,0.75)" stroke-width="1.6"/><line x1="631.8574035806862" y1="159.10520885774238" x2="785.3327645049285" y2="312.58056978198476" stroke="rgba(34,197,94,0.75)" stroke-width="1.6"/><line x1="643.8574035806862" y1="159.10520885774238" x2="797.3327645049285" y2="312.58056978198476" stroke="rgba(34,197,94,0.75)" stroke-width="1.6"/><line x1="655.8574035806862" y1="159.10520885774238" x2="809.3327645049285" y2="312.58056978198476" stroke="rgba(34,197,94,0.75)" stroke-width="1.6"/><line x1="667.8574035806862" y1="159.10520885774238" x2="821.3327645049285" y2="312.58056978198476" stroke="rgba(34,197,94,0.75)" stroke-width="1.6"/><line x1="679.8574035806862" y1="159.10520885774238" x2="833.3327645049285" y2="312.58056978198476" stroke="rgba(34,197,94,0.75)" stroke-width="1.6"/><line x1="691.8574035806862" y1="159.10520885774238" x2="845.3327645049285" y2="312.58056978198476" stroke="rgba(34,197,94,0.75)" stroke-width="1.6"/><line x1="703.8574035806862" y1="159.10520885774238" x2="857.3327645049285" y2="312.58056978198476" stroke="rgba(34,197,94,0.75)" stroke-width="1.6"/><line x1="715.8574035806862" y1="159.10520885774238" x2="869.3327645049285" y2="312.58056978198476" stroke="rgba(34,197,94,0.75)" stroke-width="1.6"/><line x1="727.8574035806862" y1="159.10520885774238" x2="881.3327645049285" y2="312.58056978198476" stroke="rgba(34,197,94,0.75)" stroke-width="1.6"/><line x1="739.8574035806862" y1="159.10520885774238" x2="893.3327645049285" y2="312.58056978198476" stroke="rgba(34,197,94,0.75)" stroke-width="1.6"/><line x1="751.8574035806862" y1="159.10520885774238" x2="905.3327645049285" y2="312.58056978198476" stroke="rgba(34,197,94,0.75)" stroke-width="1.6"/><line x1="763.8574035806862" y1="159.10520885774238" x2="917.3327645049285" y2="312.58056978198476" stroke="rgba(34,197,94,0.75)" stroke-width="1.6"/><line x1="775.8574035806862" y1="159.10520885774238" x2="929.3327645049285" y2="312.58056978198476" stroke="rgba(34,197,94,0.75)" stroke-width="1.6"/><line x1="787.8574035806862" y1="159.10520885774238" x2="941.3327645049285" y2="312.58056978198476" stroke="rgba(34,197,94,0.75)" stroke-width="1.6"/><line x1="799.8574035806862" y1="159.10520885774238" x2="953.3327645049285" y2="312.58056978198476" stroke="rgba(34,197,94,0.75)" stroke-width="1.6"/><line x1="811.8574035806862" y1="159.10520885774238" x2="965.3327645049285" y2="312.58056978198476" stroke="rgba(34,197,94,0.75)" stroke-width="1.6"/><line x1="823.8574035806862" y1="159.10520885774238" x2="977.3327645049285" y2="312.58056978198476" stroke="rgba(34,197,94,0.75)" stroke-width="1.6"/><line x1="835.8574035806862" y1="159.10520885774238" x2="989.3327645049285" y2="312.58056978198476" stroke="rgba(34,197,94,0.75)" stroke-width="1.6"/><line x1="847.8574035806862" y1="159.10520885774238" x2="1001.3327645049285" y2="312.58056978198476" stroke="rgba(34,197,94,0.75)" stroke-width="1.6"/><line x1="859.8574035806862" y1="159.10520885774238" x2="1013.3327645049285" y2="312.58056978198476" stroke="rgba(34,197,94,0.75)" stroke-width="1.6"/><line x1="871.8574035806862" y1="159.10520885774238" x2="1025.3327645049285" y2="312.58056978198476" stroke="rgba(34,197,94,0.75)" stroke-width="1.6"/><line x1="883.8574035806862" y1="159.10520885774238" x2="1037.3327645049285" y2="312.58056978198476" stroke="rgba(34,197,94,0.75)" stroke-width="1.6"/><line x1="895.8574035806862" y1="159.10520885774238" x2="1049.3327645049285" y2="312.58056978198476" stroke="rgba(34,197,94,0.75)" stroke-width="1.6"/><line x1="907.8574035806862" y1="159.10520885774238" x2="1061.3327645049285" y2="312.58056978198476" stroke="rgba(34,197,94,0.75)" stroke-width="1.6"/><line x1="283.85740358068614" y1="312.58056978198476" x2="437.3327645049285" y2="159.10520885774238" stroke="rgba(34,197,94,0.75)" stroke-width="1.6"/><line x1="295.85740358068614" y1="312.58056978198476" x2="449.3327645049285" y2="159.10520885774238" stroke="rgba(34,197,94,0.75)" stroke-width="1.6"/><line x1="307.85740358068614" y1="312.58056978198476" x2="461.3327645049285" y2="159.10520885774238" stroke="rgba(34,197,94,0.75)" stroke-width="1.6"/><line x1="319.85740358068614" y1="312.58056978198476" x2="473.3327645049285" y2="159.10520885774238" stroke="rgba(34,197,94,0.75)" stroke-width="1.6"/><line x1="331.85740358068614" y1="312.58056978198476" x2="485.3327645049285" y2="159.10520885774238" stroke="rgba(34,197,94,0.75)" stroke-width="1.6"/><line x1="343.85740358068614" y1="312.58056978198476" x2="497.3327645049285" y2="159.10520885774238" stroke="rgba(34,197,94,0.75)" stroke-width="1.6"/><line x1="355.85740358068614" y1="312.58056978198476" x2="509.3327645049285" y2="159.10520885774238" stroke="rgba(34,197,94,0.75)" stroke-width="1.6"/><line x1="367.85740358068614" y1="312.58056978198476" x2="521.3327645049285" y2="159.10520885774238" stroke="rgba(34,197,94,0.75)" stroke-width="1.6"/><line x1="379.85740358068614" y1="312.58056978198476" x2="533.3327645049285" y2="159.10520885774238" stroke="rgba(34,197,94,0.75)" stroke-width="1.6"/><line x1="391.85740358068614" y1="312.58056978198476" x2="545.3327645049285" y2="159.10520885774238" stroke="rgba(34,197,94,0.75)" stroke-width="1.6"/><line x1="403.85740358068614" y1="312.58056978198476" x2="557.3327645049285" y2="159.10520885774238" stroke="rgba(34,197,94,0.75)" stroke-width="1.6"/><line x1="415.85740358068614" y1="312.58056978198476" x2="569.3327645049285" y2="159.10520885774238" stroke="rgba(34,197,94,0.75)" stroke-width="1.6"/><line x1="427.85740358068614" y1="312.58056978198476" x2="581.3327645049285" y2="159.10520885774238" stroke="rgba(34,197,94,0.75)" stroke-width="1.6"/><line x1="439.85740358068614" y1="312.58056978198476" x2="593.3327645049285" y2="159.10520885774238" stroke="rgba(34,197,94,0.75)" stroke-width="1.6"/><line x1="451.85740358068614" y1="312.58056978198476" x2="605.3327645049285" y2="159.10520885774238" stroke="rgba(34,197,94,0.75)" stroke-width="1.6"/><line x1="463.85740358068614" y1="312.58056978198476" x2="617.3327645049285" y2="159.10520885774238" stroke="rgba(34,197,94,0.75)" stroke-width="1.6"/><line x1="475.85740358068614" y1="312.58056978198476" x2="629.3327645049285" y2="159.10520885774238" stroke="rgba(34,197,94,0.75)" stroke-width="1.6"/><line x1="487.85740358068614" y1="312.58056978198476" x2="641.3327645049285" y2="159.10520885774238" stroke="rgba(34,197,94,0.75)" stroke-width="1.6"/><line x1="499.85740358068614" y1="312.58056978198476" x2="653.3327645049285" y2="159.10520885774238" stroke="rgba(34,197,94,0.75)" stroke-width="1.6"/><line x1="511.85740358068614" y1="312.58056978198476" x2="665.3327645049285" y2="159.10520885774238" stroke="rgba(34,197,94,0.75)" stroke-width="1.6"/><line x1="523.8574035806862" y1="312.58056978198476" x2="677.3327645049285" y2="159.10520885774238" stroke="rgba(34,197,94,0.75)" stroke-width="1.6"/><line x1="535.8574035806862" y1="312.58056978198476" x2="689.3327645049285" y2="159.10520885774238" stroke="rgba(34,197,94,0.75)" stroke-width="1.6"/><line x1="547.8574035806862" y1="312.58056978198476" x2="701.3327645049285" y2="159.10520885774238" stroke="rgba(34,197,94,0.75)" stroke-width="1.6"/><line x1="559.8574035806862" y1="312.58056978198476" x2="713.3327645049285" y2="159.10520885774238" stroke="rgba(34,197,94,0.75)" stroke-width="1.6"/><line x1="571.8574035806862" y1="312.58056978198476" x2="725.3327645049285" y2="159.10520885774238" stroke="rgba(34,197,94,0.75)" stroke-width="1.6"/><line x1="583.8574035806862" y1="312.58056978198476" x2="737.3327645049285" y2="159.10520885774238" stroke="rgba(34,197,94,0.75)" stroke-width="1.6"/><line x1="595.8574035806862" y1="312.58056978198476" x2="749.3327645049285" y2="159.10520885774238" stroke="rgba(34,197,94,0.75)" stroke-width="1.6"/><line x1="607.8574035806862" y1="312.58056978198476" x2="761.3327645049285" y2="159.10520885774238" stroke="rgba(34,197,94,0.75)" stroke-width="1.6"/><line x1="619.8574035806862" y1="312.58056978198476" x2="773.3327645049285" y2="159.10520885774238" stroke="rgba(34,197,94,0.75)" stroke-width="1.6"/><line x1="631.8574035806862" y1="312.58056978198476" x2="785.3327645049285" y2="159.10520885774238" stroke="rgba(34,197,94,0.75)" stroke-width="1.6"/><line x1="643.8574035806862" y1="312.58056978198476" x2="797.3327645049285" y2="159.10520885774238" stroke="rgba(34,197,94,0.75)" stroke-width="1.6"/><line x1="655.8574035806862" y1="312.58056978198476" x2="809.3327645049285" y2="159.10520885774238" stroke="rgba(34,197,94,0.75)" stroke-width="1.6"/><line x1="667.8574035806862" y1="312.58056978198476" x2="821.3327645049285" y2="159.10520885774238" stroke="rgba(34,197,94,0.75)" stroke-width="1.6"/><line x1="679.8574035806862" y1="312.58056978198476" x2="833.3327645049285" y2="159.10520885774238" stroke="rgba(34,197,94,0.75)" stroke-width="1.6"/><line x1="691.8574035806862" y1="312.58056978198476" x2="845.3327645049285" y2="159.10520885774238" stroke="rgba(34,197,94,0.75)" stroke-width="1.6"/><line x1="703.8574035806862" y1="312.58056978198476" x2="857.3327645049285" y2="159.10520885774238" stroke="rgba(34,197,94,0.75)" stroke-width="1.6"/><line x1="715.8574035806862" y1="312.58056978198476" x2="869.3327645049285" y2="159.10520885774238" stroke="rgba(34,197,94,0.75)" stroke-width="1.6"/><line x1="727.8574035806862" y1="312.58056978198476" x2="881.3327645049285" y2="159.10520885774238" stroke="rgba(34,197,94,0.75)" stroke-width="1.6"/><line x1="739.8574035806862" y1="312.58056978198476" x2="893.3327645049285" y2="159.10520885774238" stroke="rgba(34,197,94,0.75)" stroke-width="1.6"/><line x1="751.8574035806862" y1="312.58056978198476" x2="905.3327645049285" y2="159.10520885774238" stroke="rgba(34,197,94,0.75)" stroke-width="1.6"/><line x1="763.8574035806862" y1="312.58056978198476" x2="917.3327645049285" y2="159.10520885774238" stroke="rgba(34,197,94,0.75)" stroke-width="1.6"/><line x1="775.8574035806862" y1="312.58056978198476" x2="929.3327645049285" y2="159.10520885774238" stroke="rgba(34,197,94,0.75)" stroke-width="1.6"/><line x1="787.8574035806862" y1="312.58056978198476" x2="941.3327645049285" y2="159.10520885774238" stroke="rgba(34,197,94,0.75)" stroke-width="1.6"/><line x1="799.8574035806862" y1="312.58056978198476" x2="953.3327645049285" y2="159.10520885774238" stroke="rgba(34,197,94,0.75)" stroke-width="1.6"/><line x1="811.8574035806862" y1="312.58056978198476" x2="965.3327645049285" y2="159.10520885774238" stroke="rgba(34,197,94,0.75)" stroke-width="1.6"/><line x1="823.8574035806862" y1="312.58056978198476" x2="977.3327645049285" y2="159.10520885774238" stroke="rgba(34,197,94,0.75)" stroke-width="1.6"/><line x1="835.8574035806862" y1="312.58056978198476" x2="989.3327645049285" y2="159.10520885774238" stroke="rgba(34,197,94,0.75)" stroke-width="1.6"/><line x1="847.8574035806862" y1="312.58056978198476" x2="1001.3327645049285" y2="159.10520885774238" stroke="rgba(34,197,94,0.75)" stroke-width="1.6"/><line x1="859.8574035806862" y1="312.58056978198476" x2="1013.3327645049285" y2="159.10520885774238" stroke="rgba(34,197,94,0.75)" stroke-width="1.6"/><line x1="871.8574035806862" y1="312.58056978198476" x2="1025.3327645049285" y2="159.10520885774238" stroke="rgba(34,197,94,0.75)" stroke-width="1.6"/><line x1="883.8574035806862" y1="312.58056978198476" x2="1037.3327645049285" y2="159.10520885774238" stroke="rgba(34,197,94,0.75)" stroke-width="1.6"/><line x1="895.8574035806862" y1="312.58056978198476" x2="1049.3327645049285" y2="159.10520885774238" stroke="rgba(34,197,94,0.75)" stroke-width="1.6"/><line x1="907.8574035806862" y1="312.58056978198476" x2="1061.3327645049285" y2="159.10520885774238" stroke="rgba(34,197,94,0.75)" stroke-width="1.6"/></g><path d="M635.61,263.12L635.61,263.12A29.24,29.24,0,0,1,635.61,208.56L635.61,208.56A29.24,29.24,0,0,1,682.56,183.88L682.56,183.88A29.24,29.24,0,0,1,729.50,208.56L729.50,208.56A29.24,29.24,0,0,1,729.50,263.12L729.50,263.12A29.24,29.24,0,0,1,682.56,287.81L682.56,287.81A29.24,29.24,0,0,1,635.61,263.12Z" stroke="#22c55e" stroke-width="4" stroke-linecap="round" stroke-linejoin="round" fill="none"/></g></svg>